# xmcd CD database file
#
# Track frame offsets:
#	160
#	23635
#	43892
#	67265
#	90472
#	108380
#	135510
#	155460
#	175015
#
# Disc length: 2815 seconds
#
# Revision: 0
# Processed by: cddbd v1.5.2PL0 Copyright (c) Steve Scherf et al.
# Submitted via: CDex 1.70beta2
#
DISCID=700afd09
DTITLE=Charles Timberlake - Between the Worlds
DYEAR=1900
DGENRE=New Age
TTITLE0=Reflections
TTITLE1=Silence of Eternity
TTITLE2=Clouds
TTITLE3=Paths of Love
TTITLE4=a New Beginning
TTITLE5=Between the Worlds
TTITLE6=Reconciliation
TTITLE7=The Beauty of Your Peace
TTITLE8=The Light of Life
EXTD=
EXTT0=
EXTT1=
EXTT2=
EXTT3=
EXTT4=
EXTT5=
EXTT6=
EXTT7=
EXTT8=
PLAYORDER=
